<?xml version="1.0" encoding="UTF-8" standalone="no"?>
<!DOCTYPE svg PUBLIC "-//W3C//DTD SVG 1.1//EN" "http://www.w3.org/Graphics/SVG/1.1/DTD/svg11.dtd">
<!-- Created with Vectornator (http://vectornator.io/) -->
<svg height="100%" stroke-miterlimit="10" style="fill-rule:nonzero;clip-rule:evenodd;stroke-linecap:round;stroke-linejoin:round;" version="1.1" viewBox="0 0 387.403 234.041" width="100%" xml:space="preserve" xmlns="http://www.w3.org/2000/svg" xmlns:vectornator="http://vectornator.io" xmlns:xlink="http://www.w3.org/1999/xlink">
<defs/>
<g id="Untitled" vectornator:layerName="Untitled">
<g opacity="1">
<path d="M211.928 42.8659L219.446 25.3549L226.298 89.1409C264.517 103.349 297.62 65.9329 272.171 33.9469C329.542 39.5619 376.715 75.6979 376.576 119.002C376.477 150.076 352.157 179.19 300.021 194.856C323.429 154.098 280.026 109.271 245.627 181.612C241.839 140.886 206.083 168.622 202.499 214.213C195.486 158.904 162.018 146.831 159.876 179.78C120.573 114.286 83.9932 147.951 106.171 196.731C59.3582 179.961 28.4212 151.358 28.4212 119.002C28.4212 82.4299 67.0472 46.7759 125.247 35.3359C100.496 69.0619 129.711 101.648 173.397 88.9219L179.253 24.7209L186.592 42.8239C194.909 36.8969 203.376 37.9289 211.928 42.8659Z" fill="#000000" fill-rule="evenodd" opacity="1" stroke="none"/>
</g>
</g>
</svg>
