<?xml version="1.0" encoding="UTF-8" standalone="no"?>
<!DOCTYPE svg PUBLIC "-//W3C//DTD SVG 1.1//EN" "http://www.w3.org/Graphics/SVG/1.1/DTD/svg11.dtd">
<!-- Created with Vectornator (http://vectornator.io/) -->
<svg height="100%" stroke-miterlimit="10" style="fill-rule:nonzero;clip-rule:evenodd;stroke-linecap:round;stroke-linejoin:round;" version="1.1" viewBox="0 0 4091.27 4091.73" width="100%" xml:space="preserve" xmlns="http://www.w3.org/2000/svg" xmlns:vectornator="http://vectornator.io" xmlns:xlink="http://www.w3.org/1999/xlink">
<defs/>
<g id="Layer_x0020_1" vectornator:layerName="Layer_x0020_1">
<g opacity="1">
<path d="M2865.28 1783.11C2906 1510.85 2698.72 1364.5 2415.28 1266.87L2507.23 898.069L2282.73 842.129L2193.22 1201.22C2134.2 1186.5 2073.59 1172.63 2013.35 1158.88L2103.51 797.419L1879.15 741.479L1787.15 1110.16C1738.31 1099.04 1690.34 1088.05 1643.8 1076.47L1644.06 1075.31L1334.47 997.999L1274.75 1237.78C1274.75 1237.78 1441.31 1275.96 1437.8 1278.31C1528.71 1301 1545.15 1361.18 1542.42 1408.88L1437.68 1829.03C1443.94 1830.62 1452.06 1832.92 1461.02 1836.52C1453.53 1834.66 1445.56 1832.63 1437.29 1830.65L1290.48 2419.22C1279.37 2446.84 1251.17 2488.29 1187.61 2472.55C1189.86 2475.81 1024.44 2431.83 1024.44 2431.83L912.976 2688.81L1205.13 2761.64C1259.48 2775.27 1312.74 2789.53 1365.19 2802.94L1272.29 3175.97L1496.53 3231.91L1588.53 2862.84C1649.79 2879.47 1709.24 2894.81 1767.44 2909.27L1675.75 3276.6L1900.26 3332.54L1993.15 2960.21C1993.15 2960.21 2663.82 3003.45 2784.98 2657.19C2866.58 2424.17 2808.37 2273.58 2669.46 2169.19C2642.18 2148.69 2611.78 2129.96 2578.72 2112.75C2698.78 2096.62 2835.9 1982.44 2865.36 1783.14L2865.29 1783.09L2865.28 1783.11Z" fill="#f5891d" fill-rule="nonzero" opacity="1" stroke="none"/>
</g>
</g>
</svg>
