<?xml version="1.0" encoding="UTF-8" standalone="no"?>
<!DOCTYPE svg PUBLIC "-//W3C//DTD SVG 1.1//EN" "http://www.w3.org/Graphics/SVG/1.1/DTD/svg11.dtd">
<!-- Created with Vectornator (http://vectornator.io/) -->
<svg height="100%" stroke-miterlimit="10" style="fill-rule:nonzero;clip-rule:evenodd;stroke-linecap:round;stroke-linejoin:round;" version="1.1" viewBox="0 0 401.294 401.294" width="100%" xml:space="preserve" xmlns="http://www.w3.org/2000/svg" xmlns:vectornator="http://vectornator.io" xmlns:xlink="http://www.w3.org/1999/xlink">
<defs/>
<clipPath id="ArtboardFrame">
<rect height="401.294" width="401.294" x="0" y="0"/>
</clipPath>
<g clip-path="url(#ArtboardFrame)" id="Untitled" vectornator:layerName="Untitled">
<g opacity="1">
<path d="M397.294 164.141C399.503 164.141 401.294 162.35 401.294 160.141L401.294 89.215C401.294 87.006 399.503 85.215 397.294 85.215L364.075 85.215C361.866 85.215 360.075 87.006 360.075 89.215L360.075 160.141C360.075 162.35 361.866 164.141 364.075 164.141L376.685 164.141L376.685 173.14L340.48 173.14C334.472 168.555 327.079 166.046 319.494 166.046C301.732 166.046 287.06 179.501 285.118 196.752L281.697 196.752L281.697 186.962C281.697 184.753 279.906 182.962 277.697 182.962L248.704 182.962L242.531 171.837C241.826 170.566 240.487 169.778 239.033 169.778L199.52 169.778L199.52 163.254L215.716 163.254C217.925 163.254 219.716 161.463 219.716 159.254L219.716 73.281C219.716 71.072 217.925 69.281 215.716 69.281L175.45 69.281C173.241 69.281 171.45 71.072 171.45 73.281L171.45 159.253C171.45 161.462 173.241 163.253 175.45 163.253L191.519 163.253L191.519 169.777L153.051 169.777C150.842 169.777 149.051 171.568 149.051 173.777L149.051 196.751L144.531 196.751C142.561 181.704 129.666 170.046 114.091 170.046C103.778 170.046 94.388 175.171 88.765 183.377C83.142 175.171 73.753 170.046 63.439 170.046L44.653 170.046L44.653 164.141L50.977 164.141C53.186 164.141 54.977 162.35 54.977 160.141L54.977 89.215C54.977 87.006 53.186 85.215 50.977 85.215L17.758 85.215C15.549 85.215 13.758 87.006 13.758 89.215L13.758 160.141C13.758 162.35 15.549 164.141 17.758 164.141L24.083 164.141L24.083 170.046L4 170.046C1.791 170.046 0 171.837 0 174.046L0 227.465C0 229.674 1.791 231.465 4 231.465L24.083 231.465L24.083 237.37L17.758 237.37C15.549 237.37 13.758 239.161 13.758 241.37L13.758 312.297C13.758 314.506 15.549 316.297 17.758 316.297L50.977 316.297C53.186 316.297 54.977 314.506 54.977 312.297L54.977 241.37C54.977 239.161 53.186 237.37 50.977 237.37L44.652 237.37L44.652 231.465L63.441 231.465C73.754 231.465 83.144 226.34 88.767 218.134C94.391 226.339 103.78 231.465 114.093 231.465C129.671 231.465 142.569 219.802 144.534 204.751L149.052 204.751L149.052 227.516C149.052 229.725 150.843 231.516 153.052 231.516L191.52 231.516L191.52 238.04L175.451 238.04C173.242 238.04 171.451 239.831 171.451 242.04L171.451 328.012C171.451 330.221 173.242 332.012 175.451 332.012L215.717 332.012C217.926 332.012 219.717 330.221 219.717 328.012L219.717 242.04C219.717 239.831 217.926 238.04 215.717 238.04L199.521 238.04L199.521 231.516L239.034 231.516C240.488 231.516 241.826 230.727 242.532 229.457L248.705 218.332L277.698 218.332C279.907 218.332 281.698 216.541 281.698 214.332L281.698 204.751L285.145 204.751C287.182 221.902 301.805 235.248 319.495 235.248C327.076 235.248 334.467 232.741 340.473 228.161L376.687 228.161L376.687 237.37L364.077 237.37C361.868 237.37 360.077 239.161 360.077 241.37L360.077 312.297C360.077 314.506 361.868 316.297 364.077 316.297L397.296 316.297C399.505 316.297 401.296 314.506 401.296 312.297L401.296 241.37C401.296 239.161 399.505 237.37 397.296 237.37L384.687 237.37L384.687 228.161L397.122 228.161C399.331 228.161 401.122 226.37 401.122 224.161L401.122 177.14C401.122 174.931 399.331 173.14 397.122 173.14L384.687 173.14L384.687 164.141C384.687 164.141 397.294 164.141 397.294 164.141Z" fill="#000000" fill-rule="nonzero" opacity="1" stroke="none"/>
</g>
</g>
</svg>
