<?xml version="1.0" standalone="no"?>
<!DOCTYPE svg PUBLIC "-//W3C//DTD SVG 20010904//EN"
 "http://www.w3.org/TR/2001/REC-SVG-20010904/DTD/svg10.dtd">
<svg version="1.0" xmlns="http://www.w3.org/2000/svg"
 width="1200.000000pt" height="1138.000000pt" viewBox="0 0 1200.000000 1138.000000"
 preserveAspectRatio="xMidYMid meet">

<g transform="translate(0.000000,1138.000000) scale(0.100000,-0.100000)"
fill="#000000" stroke="none">
<path d="M5655 8999 c-664 -668 -1458 -1230 -2390 -1691 -338 -167 -851 -381
-1027 -428 -21 -6 -38 -14 -37 -18 0 -4 98 -75 217 -158 119 -83 492 -344 827
-579 858 -602 1631 -1144 2645 -1854 481 -338 881 -619 889 -626 21 -20 5 -63
-40 -108 -38 -38 -41 -39 -94 -35 -43 4 -67 13 -103 38 -564 404 -1586 1077
-1800 1186 -122 61 -316 128 -451 154 -427 84 -909 23 -1421 -177 -211 -83
-462 -211 -649 -330 l-53 -34 58 -43 c33 -23 214 -153 404 -287 353 -251 1825
-1297 2095 -1489 83 -58 338 -240 569 -404 230 -164 431 -305 446 -314 l28
-16 186 181 c673 659 1437 1195 2321 1633 325 160 701 320 978 416 60 20 105
40 100 44 -4 5 -237 169 -518 365 -280 197 -598 420 -705 495 -107 75 -582
408 -1055 740 -473 332 -1017 713 -1210 848 -192 136 -516 363 -720 505 -203
143 -373 263 -377 266 -14 12 36 95 71 118 39 26 78 29 124 9 18 -7 115 -73
217 -145 435 -311 1470 -987 1639 -1071 284 -141 562 -198 911 -187 318 11
621 78 965 214 128 51 375 168 485 231 86 49 200 124 200 131 0 4 -161 122
-357 262 -342 242 -634 450 -1463 1039 -1452 1032 -1760 1250 -1767 1250 -5 0
-67 -59 -138 -131z"/>
</g>
</svg>
