<?xml version="1.0" encoding="UTF-8" standalone="no"?>
<!DOCTYPE svg PUBLIC "-//W3C//DTD SVG 1.1//EN" "http://www.w3.org/Graphics/SVG/1.1/DTD/svg11.dtd">
<!-- Created with Vectornator (http://vectornator.io/) -->
<svg height="100%" stroke-miterlimit="10" style="fill-rule:nonzero;clip-rule:evenodd;stroke-linecap:round;stroke-linejoin:round;" version="1.1" viewBox="0 0 841.995 595.35" width="100%" xml:space="preserve" xmlns="http://www.w3.org/2000/svg" xmlns:vectornator="http://vectornator.io" xmlns:xlink="http://www.w3.org/1999/xlink">
<defs/>
<g id="Layer-1" vectornator:layerName="Layer 1">
<path d="M242.138 67.2179L616.67 67.2179L626.613 183.519L612.619 183.519C610.888 160.566 606.726 143.036 600.098 130.996C593.469 118.957 584.383 110.089 572.845 104.393C561.308 98.6977 543.016 95.9692 517.973 96.208L347.464 96.208L499.56 276.97L326.472 466.258L516.132 466.258C550.502 466.258 576.775 461.142 594.942 450.91C613.097 440.679 626.723 419.304 635.82 386.791L649.814 389.861L628.454 529.695L242.138 529.695L242.138 517.417L434.376 307.324L242.138 79.496L242.138 67.2179Z" fill="#000000" fill-rule="nonzero" opacity="1" stroke="none"/>
</g>
</svg>
