<?xml version="1.0" encoding="UTF-8" standalone="no"?>
<!DOCTYPE svg PUBLIC "-//W3C//DTD SVG 1.1//EN" "http://www.w3.org/Graphics/SVG/1.1/DTD/svg11.dtd">
<!-- Created with Vectornator (http://vectornator.io/) -->
<svg height="100%" stroke-miterlimit="10" style="fill-rule:nonzero;clip-rule:evenodd;stroke-linecap:round;stroke-linejoin:round;" version="1.1" viewBox="0 0 33.988 70.0481" width="100%" xml:space="preserve" xmlns="http://www.w3.org/2000/svg" xmlns:vectornator="http://vectornator.io" xmlns:xlink="http://www.w3.org/1999/xlink">
<defs/>
<g id="g1876" vectornator:layerName="g1876">
<path d="M8.45156 59.37C8.05569 61.4835 11.1333 66.9445 15.5694 67.0878C20.9323 67.2612 24.3585 63.1588 22.7623 56.4637L14.7571 19.5184C13.8041 15.1204 14.5194 12.735 15.0282 11.3134C16.3858 7.52061 19.7774 5.95625 20.6032 7.17051C21.0746 7.86377 22.2144 11.1053 18.9697 16.9112C16.439 21.4393 4.66485 27.377 3.80078 38.003C3.05275 47.2432 12.8313 53.9803 21.1798 51.2974C26.7226 49.5162 29.4742 41.1914 26.0434 36.8523C16.9895 25.4011 2.46923 42.9263 16.5352 47.7274C15.0057 46.524 13.9631 45.5922 13.769 44.4533C11.879 33.3647 28.5521 36.2923 24.0597 46.8119C22.2124 51.1376 14.7508 51.9744 10.5015 48.1153C6.94189 44.8825 5.36235 38.6548 9.32359 34.184C14.6887 28.1287 21.0231 22.6929 22.7055 14.4036C24.695 4.60131 18.1994-3.04069 14.0928 6.60134C12.7149 9.83671 12.2016 13.0845 13.521 19.3083L21.5199 57.0399C22.0926 59.7412 21.7092 63.4584 19.188 65.1668C17.9391 66.0131 13.5197 66.5955 12.4385 64.5754C12.4385 64.5754 13.5487 63.8214 13.9614 62.4453C14.3742 61.0692 14.2497 60.4485 14.0896 59.071C13.9294 57.6936 13.3208 56.9354 13.3208 56.9354C13.3208 56.9354 12.6267 56.0064 11.6123 56.1239C10.5978 56.2413 10.0533 56.5937 9.26309 57.4053C8.47292 58.2168 8.45156 59.37 8.45156 59.37Z" fill="#000000" fill-rule="nonzero" opacity="1" stroke="#000000" stroke-linecap="butt" stroke-linejoin="miter" stroke-width="0.101028"/>
</g>
</svg>
